/* XPM */
static char *_bc900143482409caaa9f76492b85b61t7R3ozDnklwBAtbV[] = {
/* columns rows colors chars-per-pixel */
"110 25 6 1 ",
"  c gray13",
". c #37474F",
"X c gray26",
"o c #455A64",
"O c #546E7A",
"+ c gray38",
/* pixels */
"OOOOOOOOOOOOOOOOOOOOOOOOOOOOOOOOOOOOOOOOOOOOOOOOOOOOOOOOOOOOOOOOOOOOOOOOOOOOOOOOOOOOOOOOOOOOOOOOOOOOOOOOOOOOOO",
"OooooooooooooooooooooooooooooooooooooooooooooooooooooooooooooooooooooooooooooooooooooooooooooooooooooooooooooO",
"Oo..........................................................................................................oO",
"Oo.++++++++++++++++++++++++++++++++++++++++++++++++++++++++++++++++++++++++++++++++++++++++++++++++++++++++.oO",
"Oo.+XXXXXXXXXXXXXXXXXXXXXXXXXXXXXXXXXXXXXXXXXXXXXXXXXXXXXXXXXXXXXXXXXXXXXXXXXXXXXXXXXXXXXXXXXXXXXXXXXXXXXX+.oO",
"Oo.+X                                                                                                    X+.oO",
"Oo.+X                                                                                                    X+.oO",
"Oo.+X                                                                                                    X+.oO",
"Oo.+X                                                                                                    X+.oO",
"Oo.+X                                                                                                    X+.oO",
"Oo.+X                                                                                                    X+.oO",
"Oo.+X                                                                                                    X+.oO",
"Oo.+X                                                                                                    X+.oO",
"Oo.+X                                                                                                    X+.oO",
"Oo.+X                                                                                                    X+.oO",
"Oo.+X                                                                                                    X+.oO",
"Oo.+X                                                                                                    X+.oO",
"Oo.+X                                                                                                    X+.oO",
"Oo.+X                                                                                                    X+.oO",
"Oo.+X                                                                                                    X+.oO",
"Oo.+XXXXXXXXXXXXXXXXXXXXXXXXXXXXXXXXXXXXXXXXXXXXXXXXXXXXXXXXXXXXXXXXXXXXXXXXXXXXXXXXXXXXXXXXXXXXXXXXXXXXXX+.oO",
"Oo.++++++++++++++++++++++++++++++++++++++++++++++++++++++++++++++++++++++++++++++++++++++++++++++++++++++++.oO",
"Oo..........................................................................................................oO",
"OooooooooooooooooooooooooooooooooooooooooooooooooooooooooooooooooooooooooooooooooooooooooooooooooooooooooooooO",
"OOOOOOOOOOOOOOOOOOOOOOOOOOOOOOOOOOOOOOOOOOOOOOOOOOOOOOOOOOOOOOOOOOOOOOOOOOOOOOOOOOOOOOOOOOOOOOOOOOOOOOOOOOOOOO"
};
