/* XPM */
static char *result[] = {
/* columns rows colors chars-per-pixel */
"98 98 8 1 ",
"  c #6E5126",
". c #765D39",
"X c #917643",
"o c #A8925C",
"O c #B8A470",
"+ c #DAC06D",
"@ c #B7AE8D",
"# c #C4B482",
/* pixels */
"oooooooooooooooooooooooooooooooooooooooooooooooooooooooooooooooooooooooooooooooooooooooooooooooooo",
"oo############################ooooo############################ooooo############################oo",
"o#+##########################+ ooo#+##########################+ ooo#+##########################+ o",
"o##++++++++++++++++++++++++++  ooo##++++++++++++++++++++++++++  ooo##++++++++++++++++++++++++++  o",
"o##+ooooooooooooooooooooooooO. ooo##+ooooooooooooooooooooooooO. ooo##+ooooooooooooooooooooooooO. o",
"o##+ooo ooo oo o     o  o  oO  ooo##+ooo   oo o o ooo  ooo ooO  ooo##+o    oo o  oo    o     oO  o",
"o##+oo   oo    o ooo oo o ooO. ooo##+o   oooo o o oo oo oo ooO. ooo##+o  oooo   ooo oo o oo ooO. o",
"o##+o     o oo oo   ooo o ooO .ooo##+oooooooo o o oo oo oo ooO .ooo##+oo oooo o ooo    oooooooO .o",
"o##+ooooooo    oooooooo o ooO. ooo##+ooo   oooooooooo  ooo  oO. ooo##+o o ooooooooooooooo   ooO. o",
"o##+oo o oo oo oo o ooooooooO. ooo##+o   ooooo   ooooooooooooO. ooo##+ooooooooooooo oooo ooo oO. o",
"o##+o o o oooooo o o o     oO. ooo##+oooooooo ooo ooo o oo  oO. ooo##+o o o o     o oo o o o oO. o",
"o##+ooooooooo  oooooooooooooO .ooo##+oo  oooo     oo o o o ooO .ooo##+oo o oooooooo    oo   ooO .o",
"o##+o     oo o o ooo o  o  oO. ooo##+o oo oooooooooooooooo  oO. ooo##+ooooooo o o ooooooooooooO. o",
"o##+ooooooo oo o     oooooooO. ooo##+oo  oooo    ooo  o  ooooO. ooo##+o    oooooooooo  o ooo oO. o",
"o##+o o o o o ooo   oo  ooooO .ooo##+oooooooo oo oooo oo o ooO .ooo##+o oo ooo  ooo   oo     oO .o",
"o##+ooooooo oooooo ooo  ooooO  ooo##+o o  oooo  ooooo oo o ooO  ooo##+oo  ooo oo ooooooo ooo oO  o",
"o##+oo  o ooooooooooooo o ooO. ooo##+o   oooo oo oooo oo o  oO. ooo##+oooooooo  ooo o  o     oO. o",
"o##+oo  o oo   oo   ooo   ooO. ooo##+o o ooooo  ooooooooooo oO. ooo##+o ooo ooooooo   oo ooo oO. o",
"o##+oo oo o oo o ooo oooooooO .ooo##+oooooooo oo ooo  ooooo oO .ooo##+o     ooo   o o oo  o  oO .o",
"o##+o   o oo   oo o oo o o oO  ooo##+o o o oooooooooo  o ooooO  ooo##+oo   oo   ooooooooooooooO  o",
"o##+oo oo ooooooo   oo o o oO. ooo##+oooooooo    ooooo   o ooO. ooo##+ooo ooooooooo    o   o oO. o",
"o##+o o o o   oooooooo o o oO .ooo##+o     oooooo oooooooo ooO .ooo##+ooooooo  oooo  ooo o o oO .o",
"o##+ooooooooo ooo   ooooooooO .ooo##+oooooooo    oooooo  o  oO .ooo##+o   o o  o ooo ooo ooo oO .o",
"o##+o   o oo o o ooo oo   ooO..ooo##+o   ooooooooooooo o oo oO..ooo##+o o o oo   oo o oo o o oO..o",
"o##+o o oooooooo o o o     oO..ooo##+o o oooo o o ooo oo oo oO..ooo##+ooo o oooooooooooo o   oO..o",
"o##+ooo o ooo  oo   ooo   ooO  ooo##+o ooooo o o ooo     oo oO  ooo##+ooo o ooo oooo o oooooooO  o",
"o##+ooo o o   oooo oooooooooO..ooo##+o ooooooooooooooooooooooO..ooo##+ooo o o     o o o oo   oO..o",
"o##+ooooooooooooooooooooooooO .ooo##+ooooooooooooooooooooooooO .ooo##+ooooooooooooooooooooooooO .o",
"o##+OOOOOOOOOOOOOOOOOOOOOOOOO .ooo##+OOOOOOOOOOOOOOOOOOOOOOOOO .ooo##+OOOOOOOOOOOOOOOOOOOOOOOOO .o",
"o#+ . . .. . .   .  . .. .   o ooo#+ . . .. . .   .  . .. .   o ooo#+ . . .. . .   .  . .. .   o o",
"oo .  .. ..  .. .  .  ..   .  ooooo .  .. ..  .. .  .  ..   .  ooooo .  .. ..  .. .  .  ..   .  oo",
"oooooooooooooooooooooooooooooooooooooooooooooooooooooooooooooooooooooooooooooooooooooooooooooooooo",
"oooooooooooooooooooooooooooooooooooooooooooooooooooooooooooooooooooooooooooooooooooooooooooooooooo",
"oooooooooooooooooooooooooooooooooooooooooooooooooooooooooooooooooooooooooooooooooooooooooooooooooo",
"oo############################ooooo#########@##@###############ooooo############################oo",
"o#+##########################+ ooo###########@###@##@#########X ooo#+##########################+ o",
"o##++++++++++++++++++++++++++  ooo##OOOOOOOOOOOOOOOOOOOOOOOOOO .ooo##++++++++++++++++++++++++++  o",
"o##+ooooooooooooooooooooooooO. ooo##OooooooooooooooooooooooooO. ooo##+ooooooooooooooooooooooooO. o",
"o##+oo  ooo oo oo ooo ooooooO  ooo##Oooooooooooooooooooooo ooO  ooo##+oo   oooo ooo   o o ooooO  o",
"o##+o oo oo    oo  oo o   ooO. ooo##OoooX       Xooooo ooo#ooO .ooo##+o ooo oo o oo o o oo oooO. o",
"o##+o oo oo oo ooo  o   ooooO .ooo##OoX           oooo#ooooooO..ooo##+o ooo ooo ooo ooo ooo ooO .o",
"o##+oo  ooo    oo  oo o ooooO. ooo##OX   oooooooo  ooooooooooO .ooo##+oo   oo     o o o oo oooO. o",
"o##+ooooooo oo oo ooooooooooO. ooo##O   #o      oo  oooooooooO..ooo##+ooooooooo ooo o   o ooooO. o",
"o##+oo o ooooooooooooo  ooooO. ooo##OXoo          #  oooooo oO .ooo##+o ooo ooo ooooooooooooooO. o",
"o##+o o o o o   oo  o oo oooO .ooo##Ooo  ooX Xoo     Xooooo#oO. ooo##+o  o  ooo ooo    oo    oO .o",
"o##+ooooooo   ooo o o oo oooO. ooo##Oo  oo     ooX    XooooooO  ooo##+oo o oooooooooooo o oo oO. o",
"o##+o    oo o ooo   oo  ooooO. ooo##O  oo      Xoooo   Xo#X oO .ooo##+oo o oo ooo o    oo    oO. o",
"o##+ooooo ooooooo o ooooooooO .ooo##O  ooX      ooooo       oO. ooo##+oo o oo     ooooooooooooO .o",
"o##+o    ooo  ooo ooooo   ooO  ooo##Oo  oo     ooX  ooX    XoO .ooo##+oo o ooo   oooo ooooo  oO  o",
"o##+ooooooo oo ooo oo   ooooO. ooo##Oo   o#X Xoo   #oooooooooO .ooo##+ooooooooo oooo   oo   ooO. o",
"o##+oo  oooo  ooooooooooooooO. ooo##Ooo    oooX  XoooooooooooO..ooo##+o     ooooooo     ooooooO. o",
"o##+o oo ooooooooo oo     ooO .ooo##OoooX       Xooooo ooooooO  ooo##+o ooo ooo   ooooooo    oO .o",
"o##+oo  oooo  ooo o o o o ooO  ooo##OoooooX   oooXXooo#ooooooO..ooo##+oo   oo   ooo o o o oo oO  o",
"o##+o oo oo     oo oooooooooO. ooo##Ooooooo    oooX XooooooooO  ooo##+oooooooooooooooooooo  ooO. o",
"o##+oo  ooooooooo o ooo ooooO .ooo##Ooooooo     oo   ooooooooO..ooo##+o o  oo  oooo  o  o oo oO .o",
"o##+ooooooo     oo ooo o oooO .ooo##Oooo oo  #   o#  oooooo oO .ooo##+o   ooo  oooo oo ooo  ooO .o",
"o##+o    oooooooooooooo ooooO..ooo##Oooo##o  o#      oooooXXoO .ooo##+o o oooo o oo oo oo oo oO..o",
"o##+o oo ooo o oo   o     ooO..ooo##Ooooooo  oooX  XXooooooooO. ooo##+oooooooo   o  o  oooooooO..o",
"o##+oo  ooo o o o   ooo ooooO  ooo##OooooooXXooooooooooooooooO. ooo##+oo o oooooooooooooo    oO  o",
"o##+ooooooooooooooooooo ooooO..ooo##OooooooooooooooooooooooooO .ooo##+o o o o     o o o o    oO..o",
"o##+ooooooooooooooooooooooooO .ooo##OooooooooooooooooooooooooO .ooo##+ooooooooooooooooooooooooO .o",
"o##+OOOOOOOOOOOOOOOOOOOOOOOOO .ooo##OOOOOOOOOOOOOOOOOOOOOOOOOO  ooo##+OOOOOOOOOOOOOOOOOOOOOOOOO .o",
"o#+ . . .. . .   .  . .. .   o ooo#X .  . .. ... .  .  .  . . o ooo#+ . . .. . .   .  . .. .   o o",
"oo .  .. ..  .. .  .  ..   .  ooooo  .   . .  . . ...  ..  . . ooooo .  .. ..  .. .  .  ..   .  oo",
"oooooooooooooooooooooooooooooooooooooooooooooooooooooooooooooooooooooooooooooooooooooooooooooooooo",
"oooooooooooooooooooooooooooooooooooooooooooooooooooooooooooooooooooooooooooooooooooooooooooooooooo",
"oooooooooooooooooooooooooooooooooooooooooooooooooooooooooooooooooooooooooooooooooooooooooooooooooo",
"oo############################ooooo############################ooooo############################oo",
"o#+##########################+ ooo#+##########################+ ooo#+##########################+ o",
"o##++++++++++++++++++++++++++  ooo##++++++++++++++++++++++++++  ooo##++++++++++++++++++++++++++  o",
"o##+ooooooooooooooooooooooooO. ooo##+ooooooooooooooooooooooooO. ooo##+ooooooooooooooooooooooooO. o",
"o##+o    oo  ooo ooo ooo oooO  ooo##+o     o o o ooo oooo  ooO  ooo##+oo  o  o    ooo   oo o oO  o",
"o##+o oo oo  ooo     oo   ooO. ooo##+ooooo oo o ooo   ooo  ooO. ooo##+oo oo oo oo oo ooo o   oO. o",
"o##+o    ooo o oo   ooo o ooO .ooo##+ooooooo o o o     o    oO .ooo##+oo oo oo    oo o o o o oO .o",
"o##+oooooooo   ooo oooo o ooO. ooo##+o o  oooooooooooooooooooO. ooo##+o  o  ooooooooo   oo   oO. o",
"o##+o o o ooooooooooooo o ooO. ooo##+o   ooo  o  o     o o ooO. ooo##+oooooooo ooooooooooo o oO. o",
"o##+o o o ooo  o o  ooooooooO. ooo##+o o oooo o oo o o oo o oO. ooo##+o     oo   ooo o o o   oO. o",
"o##+ooooooo   oo   ooo  o ooO .ooo##+oooooooo o oo     o o ooO .ooo##+o ooo oo o ooo o o o o oO .o",
"o##+o  o  oooooo o ooo  o ooO. ooo##+o o o oo o oooooooooooooO. ooo##+oo   ooo    ooooooooooooO. o",
"o##+o oo oo   ooooooooo   ooO. ooo##+ooooooooooooo     o    oO. ooo##+oooooooooooooooo   o   oO. o",
"o##+o oo oo o oo o o oooooooO .ooo##+o   o ooo ooo ooo oooo oO .ooo##+o o o oo ooo o   ooo o oO .o",
"o##+o oo oo o ooo o oo ooo oO  ooo##+o o o oo o ooo   oo ooooO  ooo##+oooooooo  o  ooooooo o oO  o",
"o##+ooooooo o oo o o o  o  oO. ooo##+o o o ooo ooooooooo    oO. ooo##+o     ooo o oo    oo oooO. o",
"o##+oo   oooooooooooooo o ooO. ooo##+o o o o     oooo  ooooooO. ooo##+ooooooooo o oooooo o o oO. o",
"o##+o o o oo  oo     oo o ooO .ooo##+o o   ooo ooo    oo   ooO .ooo##+o   o oooooooo    oo o oO .o",
"o##+o o o o oo o ooo oooooooO  ooo##+ooooooooo ooooooooo o ooO  ooo##+o o o oo o  ooooooooooooO  o",
"o##+oo   ooo  ooo   oo o o oO. ooo##+o    oooo oooooo  o o ooO. ooo##+o o o oo   oooo  oooo  oO. o",
"o##+ooooooooooooooooooooooooO .ooo##+ooooo ooooooo    oo ooooO .ooo##+o ooo oo o ooo     oo  oO .o",
"o##+oo  ooo  ooo o o o     oO .ooo##+o    ooo  ooooooooo ooooO .ooo##+o o   ooooooooooooooo ooO .o",
"o##+o   oo     o o o o ooo oO..ooo##+oooooooo  oooo   oooooooO..ooo##+ooooooooo o oo     o   oO..o",
"o##+o  ooooooooo o o o     oO..ooo##+oooo  ooo o o ooo o o  oO..ooo##+o  ooooo o o oooooooo ooO..o",
"o##+o   oo     ooooooooo oooO  ooo##+oo   oooo   o ooo o   ooO  ooo##+o  o ooooooooo     o o oO  o",
"o##+oo  ooo  ooo     o  o  oO..ooo##+o  oooooo  ooo   oo o  oO..ooo##+oo   ooo     oo   oo o oO..o",
"o##+ooooooooooooooooooooooooO .ooo##+ooooooooooooooooooooooooO .ooo##+ooooooooooooooooooooooooO .o",
"o##+OOOOOOOOOOOOOOOOOOOOOOOOO .ooo##+OOOOOOOOOOOOOOOOOOOOOOOOO .ooo##+OOOOOOOOOOOOOOOOOOOOOOOOO .o",
"o#+ . . .. . .   .  . .. .   o ooo#+ . . .. . .   .  . .. .   o ooo#+ . . .. . .   .  . .. .   o o",
"oo .  .. ..  .. .  .  ..   .  ooooo .  .. ..  .. .  .  ..   .  ooooo .  .. ..  .. .  .  ..   .  oo",
"oooooooooooooooooooooooooooooooooooooooooooooooooooooooooooooooooooooooooooooooooooooooooooooooooo"
};
