/* XPM */
static char *result[] = {
/* columns rows colors chars-per-pixel */
"63 63 14 1 ",
"  c gray2",
". c #1C5818",
"X c #267B21",
"o c #2A8825",
"O c #2D9027",
"+ c #2D9127",
"@ c #319E2B",
"# c #38B431",
"$ c #47CC3F",
"% c #48CC40",
"& c #5AD153",
"* c #6BD665",
"= c #ADE8AA",
"- c black",
/* pixels */
"---------------------------------------------------------------",
"---------------------------------------------------------------",
"---------------------------------------------------------------",
"---------------------------------------------------------------",
"---------------------------------------------------------------",
"---------------------------------------------------------------",
"---------------------------------------------------------------",
"---------------------------------------------------------------",
"---------------------------------------------------------------",
"---------------------------------------------------------------",
"---------------------------------------------------------------",
"---------------------------------------------------------------",
"---------------------------------------------------------------",
"---------------------------------------------------------------",
"---------------------------------------------------------------",
"---------------------------------------------------------------",
"---------------------------------------------------------------",
"---------------------------------------------------------------",
"---------------------------------------------------------------",
"----------------------------       ----------------------------",
"--------------------------  XXXXXXX  --------------------------",
"------------------------  XX%%%*%%%XX  ------------------------",
"----------------------- XX$**%%%%%%%%XX -----------------------",
"---------------------- X*=$##%*%*&&&*%%X ----------------------",
"--------------------- X$$####%%&*==&&%%%X ---------------------",
"--------------------- X$######%&&&&=&*%%X ---------------------",
"-------------------- X*$#&&&##%%%%%&&&%*%X --------------------",
"-------------------- X$#%%*%%####%&&*%%*%X --------------------",
"------------------- X$$#%&*%%#######%%%%%%X -------------------",
"------------------- X$##%%%%###########%%%X -------------------",
"------------------- X$###%%##############%X -------------------",
"------------------- X$####%###############X -------------------",
"------------------- X$@###################X -------------------",
"------------------- X$X@################@#X -------------------",
"------------------- X@XX@##############@XoX -------------------",
"-------------------- @XXX+@##########@@XXo --------------------",
"-------------------- .@XXXX@@@@@@@@@@XXX@. --------------------",
"--------------------- @XXXXXX@@@@@@XXXXX@ ---------------------",
"--------------------- .@XXXXXXXXXXXXXXX@. ---------------------",
"---------------------- .@@XXXXXXXXXXX@@. ----------------------",
"----------------------- ..O@XXXXXXX@@.. -----------------------",
"------------------------  ..@@@@@@@..  ------------------------",
"--------------------------  .......  --------------------------",
"----------------------------       ----------------------------",
"---------------------------------------------------------------",
"---------------------------------------------------------------",
"---------------------------------------------------------------",
"---------------------------------------------------------------",
"---------------------------------------------------------------",
"---------------------------------------------------------------",
"---------------------------------------------------------------",
"---------------------------------------------------------------",
"---------------------------------------------------------------",
"---------------------------------------------------------------",
"---------------------------------------------------------------",
"---------------------------------------------------------------",
"---------------------------------------------------------------",
"---------------------------------------------------------------",
"---------------------------------------------------------------",
"---------------------------------------------------------------",
"---------------------------------------------------------------",
"---------------------------------------------------------------",
"---------------------------------------------------------------"
};
