/* XPM */
static char *result[] = {
/* columns rows colors chars-per-pixel */
"29 46 9 1 ",
"  c #111B28",
". c gray13",
"X c #112843",
"o c #1F446C",
"O c #2C5883",
"+ c #4C8BC7",
"@ c #4D8DC9",
"# c #71A3CB",
"$ c black",
/* pixels */
"$$$$$$$$$$$$$$$$$$$$$$$$$$$$$",
"$$$$$$$$$$$$#####$$$$$$$$$$$$",
"$$$$$$$$$$$#@@@@@#$$$$$$$$$$$",
"$$$$$$$$$$@#OOOO@@#$$$$$$$$$$",
"$$$$$$$$$@#OOOOOOO@#$$$$$$$$$",
"$$$$$$$$$@#OOoooOO@#$$$$$$$$$",
"$$$$$$$$@#OOoooooOO@#$$$$$$$$",
"$$$$$$$$@#OOoooooOO@#$$$$$$$$",
"$$$$$$$@#OOOoo+ooOOO@#$$$$$$$",
"$$$$$$$@#OOoo++++oOO@#$$$$$$$",
"$$$$$$$@#OOo++XX+oOO@#$$$$$$$",
"$$$$$$$@#OO++XXXo+OO@#$$$$$$$",
"$$$$$$$#OOO+oXXXo+OOO@#$$$$$$",
"$$$$$$@#OOo+oXXXoooOO@#$$$$$$",
"$$$$$$@#OO+ooX XoooOO@#$$$$$$",
"$$$$$$@#OO+oXX XXooOO@#$$$$$$",
"$$$$$$@#OOooX   XooOO@#$$$$$$",
"$$$$$$@#O+ooX   Xo+OO@#$$$$$$",
"$$$$$$@#O+ooX   Xoo+O@#$$$$$$",
"$$$$$$@#OOooX   Xoo+O@#$$$$$$",
"$$$$$$@#OO+oX   Xoo+O@#$$$$$$",
"$$$$$$@#OO+oX   Xoo+O@#$$$$$$",
"$$$$$$@#OO+oXX XXoo+O@#$$$$$$",
"$$$$$$@#OO++oX Xooo+O@#$$$$$$",
"$$$$$$@#OOo++XX+ooo+O@#$$$$$$",
"$$$$$$$#OOOo+++Xoo+OO@#$$$$$$",
"$$$$$$$@#OOoo+XXoo+O@#$$$$$$$",
"$$$$$$$@#OOooXXXo+OO@#$$$$$$$",
"$$$$$$$@#OO+ooXoooOO@#$$$$$$$",
"$$$$$$$@#OOO+oX+oOOO@#$$$$$$$",
"$$$$$$$$@#OOo++ooOO@#$$$$$$$$",
"$$$$$$$$@#OOoooooOO@#$$$$$$$$",
"$$$$$$$$$@#OOoooOO@#$$$$$$$$$",
"$$$$$$$$$@#OOOOOOO@#$$$$$$$$$",
"$$$$$$$$$$@#OOOO@@#$$$$$$$$$$",
"$$$$$$$$$$$@@@@@@#$$$$$$$$$$$",
"$$$$$$$$$$$$#####$$$$$$$$$$$$",
"$$$$$$$$$$$$$$$$$$$$$$$$$$$$$",
"$$$$$$$$$$$$$$$$$$$$$$$$$$$$$",
"$$$$$$$$$$$$$$$$$$$$$$$$$$$$$",
"$$$$$$$$$$$$$$$$$$$$$$$$$$$$$",
"$$$$$$$$$$$$$$$$$$$$$$$$$$$$$",
"$$$$$$$$$$$$$$$$$$$$$$$$$$$$$",
"$$$$$$$$$$$$.....$$$$$$$$$$$$",
"$$$$$$$$$...........$$$$$$$$$",
"$$$$$$$$$$$$.....$$$$$$$$$$$$"
};
