/* XPM */
static char *_5e8bd615ddc4df880e244f793b82ef6YfJxzYfUkcncH4HH[] = {
/* columns rows colors chars-per-pixel */
"29 46 9 1 ",
"  c black",
". c #111B28",
"X c gray13",
"o c #112843",
"O c #1F446C",
"+ c #2C5883",
"@ c #4C8BC7",
"# c #4D8DC9",
"$ c #71A3CB",
/* pixels */
"            $$$$$            ",
"           $#####$           ",
"          #$++++##$          ",
"         #$+++++++#$         ",
"         #$++OOO++#$         ",
"        #$++OOOOO++#$        ",
"        #$++OOO@O++#$        ",
"       #$+++OO@@@+++#$       ",
"       #$++OO@oO@@++#$       ",
"       #$++OOoooO@++#$       ",
"       #$++OOoooO@@+#$       ",
"       $++@OOoooOO@++#$      ",
"      #$++@OOoooOO@++#$      ",
"      #$+@OOOo.oOO@++#$      ",
"      #$+@OOoo.ooOO++#$      ",
"      #$+@OOo...oO@++#$      ",
"      #$+@OOo...oOO++#$      ",
"      #$+@OOo...oOO++#$      ",
"      #$+@OOo...oOO++#$      ",
"      #$+@@Oo...oOO++#$      ",
"      #$+@@Oo...oOO++#$      ",
"      #$++@Ooo.ooO@++#$      ",
"      #$++O@@o.oOO@++#$      ",
"      #$++OO@oooOO@++#$      ",
"       $+++OOoooOO@++#$      ",
"       #$++OOoooO@++#$       ",
"       #$++OOooo@@++#$       ",
"       #$++OOOoOOO++#$       ",
"       #$+++O@oOO+++#$       ",
"        #$++OO@@O++#$        ",
"        #$++OOOOO++#$        ",
"         #$++OOO++#$         ",
"         #$+++++++#$         ",
"          #$++++##$          ",
"           ######$           ",
"            $$$$$            ",
"                             ",
"                             ",
"                             ",
"                             ",
"                             ",
"                             ",
"                             ",
"                             ",
"           XXXXXXX           ",
"                             "
};
