/* XPM */
static char *result[] = {
/* columns rows colors chars-per-pixel */
"29 46 9 1 ",
"  c #111B28",
". c gray13",
"X c #112843",
"o c #1F446C",
"O c #2C5883",
"+ c #4C8BC7",
"@ c #4D8DC9",
"# c #71A3CB",
"$ c black",
/* pixels */
"$$$$$$$$$$$$$$$$$$$$$$$$$$$$$",
"$$$$$$$$$$$$$$$$$$$$$$$$$$$$$",
"$$$$$$$$$$$$#####$$$$$$$$$$$$",
"$$$$$$$$$$$#@@@@@#$$$$$$$$$$$",
"$$$$$$$$$$@#OOOO@@#$$$$$$$$$$",
"$$$$$$$$$@#OOOOOOO@#$$$$$$$$$",
"$$$$$$$$$@#OOoooOO@#$$$$$$$$$",
"$$$$$$$$@#OOoo+ooOO@#$$$$$$$$",
"$$$$$$$$@#OOo+oooOO@#$$$$$$$$",
"$$$$$$$@#OOOooXooOOO@#$$$$$$$",
"$$$$$$$@#OO+ooX++oOO@#$$$$$$$",
"$$$$$$$@#O++oX+Xo+OO@#$$$$$$$",
"$$$$$$$@#O+ooXXXooOO@#$$$$$$$",
"$$$$$$$#OO+ooXXXooOOO@#$$$$$$",
"$$$$$$@#OO+ooXXXoooOO@#$$$$$$",
"$$$$$$@#O++ooX X++oOO@#$$$$$$",
"$$$$$$@#O++oXX +Xo+OO@#$$$$$$",
"$$$$$$@#OO+oX   Xo+OO@#$$$$$$",
"$$$$$$@#OO+oX   Xoo+O@#$$$$$$",
"$$$$$$@#OOo+X   Xoo+O@#$$$$$$",
"$$$$$$@#OOo++   Xoo+O@#$$$$$$",
"$$$$$$@#OOooX   Xoo+O@#$$$$$$",
"$$$$$$@#OOooX   Xoo+O@#$$$$$$",
"$$$$$$@#OOooXX +Xoo+O@#$$$$$$",
"$$$$$$@#OOoooX +oooOO@#$$$$$$",
"$$$$$$@#OOoooXXX+oo+O@#$$$$$$",
"$$$$$$$#OOOooXXX+ooOO@#$$$$$$",
"$$$$$$$@#OOooXXX+ooO@#$$$$$$$",
"$$$$$$$@#OOooXX+ooOO@#$$$$$$$",
"$$$$$$$@#OO+ooX+ooOO@#$$$$$$$",
"$$$$$$$@#OOOo++ooOOO@#$$$$$$$",
"$$$$$$$$@#OOo+oooOO@#$$$$$$$$",
"$$$$$$$$@#OOoooooOO@#$$$$$$$$",
"$$$$$$$$$@#OOoooOO@#$$$$$$$$$",
"$$$$$$$$$@#OOOOOOO@#$$$$$$$$$",
"$$$$$$$$$$@#OOOO@@#$$$$$$$$$$",
"$$$$$$$$$$$@@@@@@#$$$$$$$$$$$",
"$$$$$$$$$$$$#####$$$$$$$$$$$$",
"$$$$$$$$$$$$$$$$$$$$$$$$$$$$$",
"$$$$$$$$$$$$$$$$$$$$$$$$$$$$$",
"$$$$$$$$$$$$$$$$$$$$$$$$$$$$$",
"$$$$$$$$$$$$$$$$$$$$$$$$$$$$$",
"$$$$$$$$$$$$$$$$$$$$$$$$$$$$$",
"$$$$$$$$$$$.......$$$$$$$$$$$",
"$$$$$$$$.............$$$$$$$$",
"$$$$$$$$$$$.......$$$$$$$$$$$"
};
