/* XPM */
static char *result[] = {
/* columns rows colors chars-per-pixel */
"32 32 15 1 ",
"  c gray2",
". c #4D2343",
"X c #752847",
"o c #90273F",
"O c #A1273B",
"+ c #BE2633",
"@ c #D93532",
"# c #D43B38",
"$ c #862742",
"% c #862743",
"& c #912740",
"* c #E15644",
"= c #E76F54",
"- c #F5C09D",
"; c black",
/* pixels */
";;;;;;;;;;;;;;;;;;;;;;;;;;;;;;;;",
";;;;;;;;;;;;;;;;;;;;;;;;;;;;;;;;",
";;;;;;;;;;;;;;;;;;;;;;;;;;;;;;;;",
";;;;;;;;;;;;       ;;;;;;;;;;;;;",
";;;;;;;;;;  XXXXXXX  ;;;;;;;;;;;",
";;;;;;;;  XX###=###XX  ;;;;;;;;;",
";;;;;;; XX@==########XX ;;;;;;;;",
";;;;;; X=-@++#=#=***=##X ;;;;;;;",
";;;;; X@@++++##*=--**###X ;;;;;;",
";;;;; X@++++++#****-*=##X ;;;;;;",
";;;; X=@+***++#####***#=#X ;;;;;",
";;;; X@+##=##++++#**=##=#X ;;;;;",
";;; X@@+#*=##+++++++######X ;;;;",
";;; X@++####+++++++++++###X ;;;;",
";;; X@+++##++++++++++++++#X ;;;;",
";;; X@++++#+++++++++++++++X ;;;;",
";;; X@O+++++++++++++++++++X ;;;;",
";;; X@XO++++++++++++++++O+X ;;;;",
";;; XOXXO++++++++++++++OX$X ;;;;",
";;;; OXXX&O++++++++++OOXX% ;;;;;",
";;;; .OXXXXOOOOOOOOOOXXXO. ;;;;;",
";;;;; OXXXXXXOOOOOOXXXXXO ;;;;;;",
";;;;; .OXXXXXXXXXXXXXXXO. ;;;;;;",
";;;;;; .OOXXXXXXXXXXXOO. ;;;;;;;",
";;;;;;; ..oOXXXXXXXOO.. ;;;;;;;;",
";;;;;;;;  ..OOOOOOO..  ;;;;;;;;;",
";;;;;;;;;;  .......  ;;;;;;;;;;;",
";;;;;;;;;;;;       ;;;;;;;;;;;;;",
";;;;;;;;;;;;;;;;;;;;;;;;;;;;;;;;",
";;;;;;;;;;;;;;;;;;;;;;;;;;;;;;;;",
";;;;;;;;;;;;;;;;;;;;;;;;;;;;;;;;",
";;;;;;;;;;;;;;;;;;;;;;;;;;;;;;;;"
};
