/* XPM */
static char *result[] = {
/* columns rows colors chars-per-pixel */
"106 101 10 1 ",
"  c #2D3137",
". c #203975",
"X c #A15A38",
"o c #D08755",
"O c #EEBC70",
"+ c #355396",
"@ c #5178B8",
"# c #FFDF94",
"$ c #FFFF98",
"% c black",
/* pixels */
"%%%%%%%%%%%%%%%%%%%%%%%%%%%%%%%%%%%%%%%%%%%%%%ooooooooooXXXX%%%%%%%%%%%%%%%%%%%%%%%%%%%%%%%%%%%%%%%%%%%%%%",
"%%%%%%%%%%%%%%%%%%%%%%%%%%%%%%%%%%%%%%%%%%%%%%ooooooooooXXXX%%%%%%%%%%%%%%%%%%%%%%%%%%%%%%%%%%%%%%%%%%%%%%",
"%%%%%%%%%%%%%%%%%%%%%%%%%%%%%%%%%%%%%%%%%%%%%%ooooooooooXXXX%%%%%%%%%%%%%%%%%%%%%%%%%%%%%%%%%%%%%%%%%%%%%%",
"%%%%%%%%%%%%%%%%%%%%%%%%%%%%%%%%%%%%%%%ooo    ##############   XXXX%%%%%%%%%%%%%%%%%%%%%%%%%%%%%%%%%%%%%%%",
"%%%%%%%%%%%%%%%%%%%%%%%%%%%%%%%%%%%%%%%ooo    ##############   XXXX%%%%%%%%%%%%%%%%%%%%%%%%%%%%%%%%%%%%%%%",
"%%%%%%%%%%%%%%%%%%%%%%%%%%%%%%%%%%%%%%%ooo    ##############   XXXX%%%%%%%%%%%%%%%%%%%%%%%%%%%%%%%%%%%%%%%",
"%%%%%%%%%%%%%%%%%%%%%%%%%%%%%%%%%%%%%%%ooo    ##############   XXXX%%%%%%%%%%%%%%%%%%%%%%%%%%%%%%%%%%%%%%%",
"%%%%%%%%%%%%%%%%%%%%%%%%%%%%%%%%%%%XXXX###    ##############   XXXXXXX%%%%%%%%%%%%%%%%%%%%%%%%%%%%%%%%%%%%",
"%%%%%%%%%%%%%%%%%%%%%%%%%%%%%%%%%%%XXXX###    ##############   XXXXXXX%%%%%%%%%%%%%%%%%%%%%%%%%%%%%%%%%%%%",
"%%%%%%%%%%%%%%%%%%%%%%%%%%%%%%%%%%%XXXX###    ##############   XXXXXXX%%%%%%%%%%%%%%%%%%%%%%%%%%%%%%%%%%%%",
"%%%%%%%%%%%%%%%%%%%%%%%%%%%%%%%%XXX    OOOXXXXOOOOOOOOOOOOOOXXX####   XXXX%%%%%%%%%%%%%%%%%%%%%%%%%%%%%%%%",
"%%%%%%%%%%%%%%%%%%%%%%%%%%%%%%%%XXX    OOOXXXXOOOOOOOOOOOOOOXXX####   XXXX%%%%%%%%%%%%%%%%%%%%%%%%%%%%%%%%",
"%%%%%%%%%%%%%%%%%%%%%%%%%%%%%%%%XXX    OOOXXXXOOOOOOOOOOOOOOXXX####   XXXX%%%%%%%%%%%%%%%%%%%%%%%%%%%%%%%%",
"%%%%%%%%%%%%%%%%%%%%%%%%%%%%%%%%XXX    OOOXXXXOOOOOOOOOOOOOOXXX####   XXXX%%%%%%%%%%%%%%%%%%%%%%%%%%%%%%%%",
"%%%%%%%%%%%%%%%%%%%%%%%%%%%%%%%%XXXXXXXXXXOOOO$$$$$$$$$$$$$$OOO    oooXXXX%%%%%%%%%%%%%%%%%%%%%%%%%%%%%%%%",
"%%%%%%%%%%%%%%%%%%%%%%%%%%%%%%%%XXXXXXXXXXOOOO$$$$$$$$$$$$$$OOO    oooXXXX%%%%%%%%%%%%%%%%%%%%%%%%%%%%%%%%",
"%%%%%%%%%%%%%%%%%%%%%%%%%%%%%%%%XXXXXXXXXXOOOO$$$$$$$$$$$$$$OOO    oooXXXX%%%%%%%%%%%%%%%%%%%%%%%%%%%%%%%%",
"%%%%%%%%%%%%%%%%%%%%%%%%%%%%ooooOOO####XXXoooo   $$$$$$$    oooXXXX###OOOOXXX%%%%%%%%%%%%%%%%%%%%%%%%%%%%%",
"%%%%%%%%%%%%%%%%%%%%%%%%%%%%ooooOOO####XXXoooo   $$$$$$$    oooXXXX###OOOOXXX%%%%%%%%%%%%%%%%%%%%%%%%%%%%%",
"%%%%%%%%%%%%%%%%%%%%%%%%%%%%ooooOOO####XXXoooo   $$$$$$$    oooXXXX###OOOOXXX%%%%%%%%%%%%%%%%%%%%%%%%%%%%%",
"%%%%%%%%%%%%%%%%%%%%%%%%%%%%ooooOOO####XXXoooo   $$$$$$$    oooXXXX###OOOOXXX%%%%%%%%%%%%%%%%%%%%%%%%%%%%%",
"%%%%%%%%%%%%%%%%%%%%%%%%%%%%ooooOOO####XXX$$$$$$$$$$$$$$$$$$$$$XXXX###OOOOXXX%%%%%%%%%%%%%%%%%%%%%%%%%%%%%",
"%%%%%%%%%%%%%%%%%%%%%%%%%%%%ooooOOO####XXX$$$$$$$$$$$$$$$$$$$$$XXXX###OOOOXXX%%%%%%%%%%%%%%%%%%%%%%%%%%%%%",
"%%%%%%%%%%%%%%%%%%%%%%%%%%%%ooooOOO####XXX$$$$$$$$$$$$$$$$$$$$$XXXX###OOOOXXX%%%%%%%%%%%%%%%%%%%%%%%%%%%%%",
"%%%%%%%%%%%%%%%%%%%%%%%%%%%%XXXXoooOOOOXXX       $$$$$$$       XXXXOOOooooXXX%%%%%%%%%%%%%%%%%%%%%%%%%%%%%",
"%%%%%%%%%%%%%%%%%%%%%%%%%%%%XXXXoooOOOOXXX       $$$$$$$       XXXXOOOooooXXX%%%%%%%%%%%%%%%%%%%%%%%%%%%%%",
"%%%%%%%%%%%%%%%%%%%%%%%%%%%%XXXXoooOOOOXXX       $$$$$$$       XXXXOOOooooXXX%%%%%%%%%%%%%%%%%%%%%%%%%%%%%",
"%%%%%%%%%%%%%%%%%%%%%%%%%%%%XXXXoooOOOOXXX       $$$$$$$       XXXXOOOooooXXX%%%%%%%%%%%%%%%%%%%%%%%%%%%%%",
"%%%%%%%%%%%%%%%%%%%%%%%%%%%%           XXX+++++++OOOOOOO+++++++XXXX          %%%%%%%%%%%%%%%%%%%%%%%%%%%%%",
"%%%%%%%%%%%%%%%%%%%%%%%%%%%%           XXX+++++++OOOOOOO+++++++XXXX          %%%%%%%%%%%%%%%%%%%%%%%%%%%%%",
"%%%%%%%%%%%%%%%%%%%%%%%%%%%%           XXX+++++++OOOOOOO+++++++XXXX          %%%%%%%%%%%%%%%%%%%%%%%%%%%%%",
"%%%%%%%%%%%%%%%%%%%%%%%%%oooOOOO#######XXXOOOO$$$$$$$$$$$$$$OOOXXXX#######OOOXXXX%%%%%%%%%%%%%%%%%%%%%%%%%",
"%%%%%%%%%%%%%%%%%%%%%%%%%oooOOOO#######XXXOOOO$$$$$$$$$$$$$$OOOXXXX#######OOOXXXX%%%%%%%%%%%%%%%%%%%%%%%%%",
"%%%%%%%%%%%%%%%%%%%%%%%%%oooOOOO#######XXXOOOO$$$$$$$$$$$$$$OOOXXXX#######OOOXXXX%%%%%%%%%%%%%%%%%%%%%%%%%",
"%%%%%%%%%%%%%%%%%%%%%%%%%oooOOOO#######XXXOOOO$$$$$$$$$$$$$$OOOXXXX#######OOOXXXX%%%%%%%%%%%%%%%%%%%%%%%%%",
"%%%%%%%%%%%%%%%%%%%%%%%%%XXXOOOOOOO####XXXXXXX$$$       $$$$XXX    ###OOOOOOOXXXX%%%%%%%%%%%%%%%%%%%%%%%%%",
"%%%%%%%%%%%%%%%%%%%%%%%%%XXXOOOOOOO####XXXXXXX$$$       $$$$XXX    ###OOOOOOOXXXX%%%%%%%%%%%%%%%%%%%%%%%%%",
"%%%%%%%%%%%%%%%%%%%%%%%%%XXXOOOOOOO####XXXXXXX$$$       $$$$XXX    ###OOOOOOOXXXX%%%%%%%%%%%%%%%%%%%%%%%%%",
"%%%%%%%%%%%%%%%%%%%%%%%%%%%%XXXX       ###XXXXoooOOOOOOOooooXXXXXXX       XXX%%%%%%%%%%%%%%%%%%%%%%%%%%%%%",
"%%%%%%%%%%%%%%%%%%%%%%%%%%%%XXXX       ###XXXXoooOOOOOOOooooXXXXXXX       XXX%%%%%%%%%%%%%%%%%%%%%%%%%%%%%",
"%%%%%%%%%%%%%%%%%%%%%%%%%%%%XXXX       ###XXXXoooOOOOOOOooooXXXXXXX       XXX%%%%%%%%%%%%%%%%%%%%%%%%%%%%%",
"%%%%%%%%%%%%%%%%%%%%%%%%%%%%XXXX       ###XXXXoooOOOOOOOooooXXXXXXX       XXX%%%%%%%%%%%%%%%%%%%%%%%%%%%%%",
"%%%%%%%%%%%%%%%%%%%%%%%%%%%%%%%%oooXXXX###XXXXXXX@@@@+++XXXXOOOXXXX$$$XXXX%%%%%%%%%%%%%%%%%%%%%%%%%%%%%%%%",
"%%%%%%%%%%%%%%%%%%%%%%%%%%%%%%%%oooXXXX###XXXXXXX@@@@+++XXXXOOOXXXX$$$XXXX%%%%%%%%%%%%%%%%%%%%%%%%%%%%%%%%",
"%%%%%%%%%%%%%%%%%%%%%%%%%%%%%%%%oooXXXX###XXXXXXX@@@@+++XXXXOOOXXXX$$$XXXX%%%%%%%%%%%%%%%%%%%%%%%%%%%%%%%%",
"%%%%%%%%%%%%%%%%%%%%%%%%%%%%oooo$$$XXXX###XXXXXXX++++...XXXXOOOXXXX$$$$$$$XXX%%%%%%%%%%%%%%%%%%%%%%%%%%%%%",
"%%%%%%%%%%%%%%%%%%%%%%%%%%%%oooo$$$XXXX###XXXXXXX++++...XXXXOOOXXXX$$$$$$$XXX%%%%%%%%%%%%%%%%%%%%%%%%%%%%%",
"%%%%%%%%%%%%%%%%%%%%%%%%%%%%oooo$$$XXXX###XXXXXXX++++...XXXXOOOXXXX$$$$$$$XXX%%%%%%%%%%%%%%%%%%%%%%%%%%%%%",
"%%%%%%%%%%%%%%%%%%%%%%%%%%%%oooo$$$XXXX###XXXXXXX++++...XXXXOOOXXXX$$$$$$$XXX%%%%%%%%%%%%%%%%%%%%%%%%%%%%%",
"%%%%%%%%%%%%%%%%%%%%%%%%%%%%oooo$$$XXXXXXXXXXX$$$@@@@+++XXXXXXXXXXX$$$$$$$XXX%%%%%%%%%%%%%%%%%%%%%%%%%%%%%",
"%%%%%%%%%%%%%%%%%%%%%%%%%%%%oooo$$$XXXXXXXXXXX$$$@@@@+++XXXXXXXXXXX$$$$$$$XXX%%%%%%%%%%%%%%%%%%%%%%%%%%%%%",
"%%%%%%%%%%%%%%%%%%%%%%%%%%%%oooo$$$XXXXXXXXXXX$$$@@@@+++XXXXXXXXXXX$$$$$$$XXX%%%%%%%%%%%%%%%%%%%%%%%%%%%%%",
"%%%%%%%%%%%%%%%%%%%%%%%%%%%%ooooOOOOOOOOOOXXXXXXXXXXXooooooooooXXXXOOOOOOOXXX%%%%%%%%%%%%%%%%%%%%%%%%%%%%%",
"%%%%%%%%%%%%%%%%%%%%%%%%%%%%ooooOOOOOOOOOOXXXXXXXXXXXooooooooooXXXXOOOOOOOXXX%%%%%%%%%%%%%%%%%%%%%%%%%%%%%",
"%%%%%%%%%%%%%%%%%%%%%%%%%%%%ooooOOOOOOOOOOXXXXXXXXXXXooooooooooXXXXOOOOOOOXXX%%%%%%%%%%%%%%%%%%%%%%%%%%%%%",
"%%%%%%%%%%%%%%%%%%%%%%%%%%%%ooooOOOOOOOOOOXXXXXXXXXXXooooooooooXXXXOOOOOOOXXX%%%%%%%%%%%%%%%%%%%%%%%%%%%%%",
"%%%%%%%%%%%%%%%%%%%%%%%%%%%%ooooOOOOOOOXXXOOOOOOOoooo$$$$$$$$$$XXXXOOOOOOOXXX%%%%%%%%%%%%%%%%%%%%%%%%%%%%%",
"%%%%%%%%%%%%%%%%%%%%%%%%%%%%ooooOOOOOOOXXXOOOOOOOoooo$$$$$$$$$$XXXXOOOOOOOXXX%%%%%%%%%%%%%%%%%%%%%%%%%%%%%",
"%%%%%%%%%%%%%%%%%%%%%%%%%%%%ooooOOOOOOOXXXOOOOOOOoooo$$$$$$$$$$XXXXOOOOOOOXXX%%%%%%%%%%%%%%%%%%%%%%%%%%%%%",
"%%%%%%%%%%%%%%%%%%%%%%%%%%%%%%%%oooOOOO$$$$$$$$$$$$$$$$$ooooooo$$$$OOOXXXX%%%%%%%%%%%%%%%%%%%%%%%%%%%%%%%%",
"%%%%%%%%%%%%%%%%%%%%%%%%%%%%%%%%oooOOOO$$$$$$$$$$$$$$$$$ooooooo$$$$OOOXXXX%%%%%%%%%%%%%%%%%%%%%%%%%%%%%%%%",
"%%%%%%%%%%%%%%%%%%%%%%%%%%%%%%%%oooOOOO$$$$$$$$$$$$$$$$$ooooooo$$$$OOOXXXX%%%%%%%%%%%%%%%%%%%%%%%%%%%%%%%%",
"%%%%%%%%%%%%%%%%%%%%%%%%%%%%%%%%oooOOOO$$$$$$$$$$$$$$$$$ooooooo$$$$OOOXXXX%%%%%%%%%%%%%%%%%%%%%%%%%%%%%%%%",
"%%%%%%%%%%%%%%%%%%%%%%%%%%%%%%%%XXXoooo$$$$$$$$$$$$$$ooo$$$$$$$$$$$XXXXXXX%%%%%%%%%%%%%%%%%%%%%%%%%%%%%%%%",
"%%%%%%%%%%%%%%%%%%%%%%%%%%%%%%%%XXXoooo$$$$$$$$$$$$$$ooo$$$$$$$$$$$XXXXXXX%%%%%%%%%%%%%%%%%%%%%%%%%%%%%%%%",
"%%%%%%%%%%%%%%%%%%%%%%%%%%%%%%%%XXXoooo$$$$$$$$$$$$$$ooo$$$$$$$$$$$XXXXXXX%%%%%%%%%%%%%%%%%%%%%%%%%%%%%%%%",
"%%%%%%%%%%%%%%%%%%%%%%%%%%%%%%%%%%%XXXX$$$$$$$$$$XXXXXXX$$$$$$$XXXXXXX%%%%%%%%%%%%%%%%%%%%%%%%%%%%%%%%%%%%",
"%%%%%%%%%%%%%%%%%%%%%%%%%%%%%%%%%%%XXXX$$$$$$$$$$XXXXXXX$$$$$$$XXXXXXX%%%%%%%%%%%%%%%%%%%%%%%%%%%%%%%%%%%%",
"%%%%%%%%%%%%%%%%%%%%%%%%%%%%%%%%%%%XXXX$$$$$$$$$$XXXXXXX$$$$$$$XXXXXXX%%%%%%%%%%%%%%%%%%%%%%%%%%%%%%%%%%%%",
"%%%%%%%%%%%%%%%%%%%%%%%%%%%%%%%%%%%XXXX$$$$$$$$$$XXXXXXX$$$$$$$XXXXXXX%%%%%%%%%%%%%%%%%%%%%%%%%%%%%%%%%%%%",
"%%%%%%%%%%%%%%%%%%%%%%%%%%%%%%%%%%%XXXXXXXXXXXXXXOOOOOOOXXXXXXXOOOOXXX%%%%%%%%%%%%%%%%%%%%%%%%%%%%%%%%%%%%",
"%%%%%%%%%%%%%%%%%%%%%%%%%%%%%%%%%%%XXXXXXXXXXXXXXOOOOOOOXXXXXXXOOOOXXX%%%%%%%%%%%%%%%%%%%%%%%%%%%%%%%%%%%%",
"%%%%%%%%%%%%%%%%%%%%%%%%%%%%%%%%%%%XXXXXXXXXXXXXXOOOOOOOXXXXXXXOOOOXXX%%%%%%%%%%%%%%%%%%%%%%%%%%%%%%%%%%%%",
"%%%%%%%%%%%%%%%%%%%%%%%%%%%%%%%%%%%XXXXOOOOOOOoooOOOOoooOOOOOOOooooXXX%%%%%%%%%%%%%%%%%%%%%%%%%%%%%%%%%%%%",
"%%%%%%%%%%%%%%%%%%%%%%%%%%%%%%%%%%%XXXXOOOOOOOoooOOOOoooOOOOOOOooooXXX%%%%%%%%%%%%%%%%%%%%%%%%%%%%%%%%%%%%",
"%%%%%%%%%%%%%%%%%%%%%%%%%%%%%%%%%%%XXXXOOOOOOOoooOOOOoooOOOOOOOooooXXX%%%%%%%%%%%%%%%%%%%%%%%%%%%%%%%%%%%%",
"%%%%%%%%%%%%%%%%%%%%%%%%%%%%%%%%%%%XXXXOOOOOOOoooOOOOoooOOOOOOOooooXXX%%%%%%%%%%%%%%%%%%%%%%%%%%%%%%%%%%%%",
"%%%%%%%%%%%%%%%%%%%%%%%%%%%%%%%%%%%XXXX$$$$$$$$$$oooo$$$$$$$oooOOOOXXX%%%%%%%%%%%%%%%%%%%%%%%%%%%%%%%%%%%%",
"%%%%%%%%%%%%%%%%%%%%%%%%%%%%%%%%%%%XXXX$$$$$$$$$$oooo$$$$$$$oooOOOOXXX%%%%%%%%%%%%%%%%%%%%%%%%%%%%%%%%%%%%",
"%%%%%%%%%%%%%%%%%%%%%%%%%%%%%%%%%%%XXXX$$$$$$$$$$oooo$$$$$$$oooOOOOXXX%%%%%%%%%%%%%%%%%%%%%%%%%%%%%%%%%%%%",
"%%%%%%%%%%%%%%%%%%%%%%%%%%%%%%%%%%%XXXXooo$$$$ooo$$$$$$$ooooooo$$$$XXX%%%%%%%%%%%%%%%%%%%%%%%%%%%%%%%%%%%%",
"%%%%%%%%%%%%%%%%%%%%%%%%%%%%%%%%%%%XXXXooo$$$$ooo$$$$$$$ooooooo$$$$XXX%%%%%%%%%%%%%%%%%%%%%%%%%%%%%%%%%%%%",
"%%%%%%%%%%%%%%%%%%%%%%%%%%%%%%%%%%%XXXXooo$$$$ooo$$$$$$$ooooooo$$$$XXX%%%%%%%%%%%%%%%%%%%%%%%%%%%%%%%%%%%%",
"%%%%%%%%%%%%%%%%%%%%%%%%%%%%%%%%%%%XXXXooo$$$$ooo$$$$$$$ooooooo$$$$XXX%%%%%%%%%%%%%%%%%%%%%%%%%%%%%%%%%%%%",
"%%%%%%%%%%%%%%%%%%%%%%%%%%%%%%%%XXXoooo$$$oooo$$$$$$$ooo$$$$$$$$$$$oooXXXX%%%%%%%%%%%%%%%%%%%%%%%%%%%%%%%%",
"%%%%%%%%%%%%%%%%%%%%%%%%%%%%%%%%XXXoooo$$$oooo$$$$$$$ooo$$$$$$$$$$$oooXXXX%%%%%%%%%%%%%%%%%%%%%%%%%%%%%%%%",
"%%%%%%%%%%%%%%%%%%%%%%%%%%%%%%%%XXXoooo$$$oooo$$$$$$$ooo$$$$$$$$$$$oooXXXX%%%%%%%%%%%%%%%%%%%%%%%%%%%%%%%%",
"%%%%%%%%%%%%%%%%%%%%%%%%%%%%%%%%XXXOOOOooo$$$$$$$oooo$$$ooooooo$$$$OOOXXXX%%%%%%%%%%%%%%%%%%%%%%%%%%%%%%%%",
"%%%%%%%%%%%%%%%%%%%%%%%%%%%%%%%%XXXOOOOooo$$$$$$$oooo$$$ooooooo$$$$OOOXXXX%%%%%%%%%%%%%%%%%%%%%%%%%%%%%%%%",
"%%%%%%%%%%%%%%%%%%%%%%%%%%%%%%%%XXXOOOOooo$$$$$$$oooo$$$ooooooo$$$$OOOXXXX%%%%%%%%%%%%%%%%%%%%%%%%%%%%%%%%",
"%%%%%%%%%%%%%%%%%%%%%%%%%%%%%%%%XXXOOOOooo$$$$$$$oooo$$$ooooooo$$$$OOOXXXX%%%%%%%%%%%%%%%%%%%%%%%%%%%%%%%%",
"%%%%%%%%%%%%%%%%%%%%%%%%%%%%%%%%XXXOOOO$$$$$$$ooooooo$$$$$$$$$$ooooOOOXXXX%%%%%%%%%%%%%%%%%%%%%%%%%%%%%%%%",
"%%%%%%%%%%%%%%%%%%%%%%%%%%%%%%%%XXXOOOO$$$$$$$ooooooo$$$$$$$$$$ooooOOOXXXX%%%%%%%%%%%%%%%%%%%%%%%%%%%%%%%%",
"%%%%%%%%%%%%%%%%%%%%%%%%%%%%%%%%XXXOOOO$$$$$$$ooooooo$$$$$$$$$$ooooOOOXXXX%%%%%%%%%%%%%%%%%%%%%%%%%%%%%%%%",
"%%%%%%%%%%%%%%%%%%%%%%%%%%%%%%%%%%%XXXX$$$oooo$$$oooooooooooOOOOOOOXXX%%%%%%%%%%%%%%%%%%%%%%%%%%%%%%%%%%%%",
"%%%%%%%%%%%%%%%%%%%%%%%%%%%%%%%%%%%XXXX$$$oooo$$$oooooooooooOOOOOOOXXX%%%%%%%%%%%%%%%%%%%%%%%%%%%%%%%%%%%%",
"%%%%%%%%%%%%%%%%%%%%%%%%%%%%%%%%%%%XXXX$$$oooo$$$oooooooooooOOOOOOOXXX%%%%%%%%%%%%%%%%%%%%%%%%%%%%%%%%%%%%",
"%%%%%%%%%%%%%%%%%%%%%%%%%%%%%%%%%%%XXXX$$$oooo$$$oooooooooooOOOOOOOXXX%%%%%%%%%%%%%%%%%%%%%%%%%%%%%%%%%%%%",
"%%%%%%%%%%%%%%%%%%%%%%%%%%%%%%%%%%%%%%%XXXXXXXXXXXXXXXXXXXXXXXXXXXX%%%%%%%%%%%%%%%%%%%%%%%%%%%%%%%%%%%%%%%",
"%%%%%%%%%%%%%%%%%%%%%%%%%%%%%%%%%%%%%%%XXXXXXXXXXXXXXXXXXXXXXXXXXXX%%%%%%%%%%%%%%%%%%%%%%%%%%%%%%%%%%%%%%%",
"%%%%%%%%%%%%%%%%%%%%%%%%%%%%%%%%%%%%%%%XXXXXXXXXXXXXXXXXXXXXXXXXXXX%%%%%%%%%%%%%%%%%%%%%%%%%%%%%%%%%%%%%%%"
};
